<svg xmlns="http://www.w3.org/2000/svg" viewBox="0 0 100 100">
  <rect width="100" height="100" rx="20" fill="#1e3a8a"/>
  <rect x="15" y="25" width="55" height="45" rx="5" fill="#ecf0f1" opacity="0.9"/>
  <polygon points="70,25 85,40 70,55" fill="#3b82f6"/>
  <circle cx="45" cy="47" r="12" fill="#3b82f6"/>
  <circle cx="45" cy="47" r="6" fill="#1e3a8a"/>
  <line x1="45" y1="35" x2="45" y2="30" stroke="#ecf0f1" stroke-width="2"/>
  <line x1="45" y1="59" x2="45" y2="64" stroke="#ecf0f1" stroke-width="2"/>
  <line x1="33" y1="47" x2="28" y2="47" stroke="#ecf0f1" stroke-width="2"/>
  <line x1="57" y1="47" x2="62" y2="47" stroke="#ecf0f1" stroke-width="2"/>
  <polygon points="25,22 45,12 65,22 65,28 45,18 25,28" fill="#10b981"/>
  <rect x="20" y="75" width="60" height="8" rx="2" fill="#ecf0f1" opacity="0.7"/>
  <rect x="25" y="85" width="50" height="6" rx="2" fill="#ecf0f1" opacity="0.5"/>
  <text x="50" y="95" font-family="Arial" font-size="10" fill="white" text-anchor="middle" font-weight="bold">STUDENT</text>
</svg>